<?xml version="1.0" standalone="no"?>
<!DOCTYPE svg PUBLIC "-//W3C//DTD SVG 20010904//EN"
 "http://www.w3.org/TR/2001/REC-SVG-20010904/DTD/svg10.dtd">
<svg version="1.0" xmlns="http://www.w3.org/2000/svg"
 width="100px" height="100px" viewBox="0 0 512.000000 512.000000"
 preserveAspectRatio="xMidYMid meet">

<g transform="translate(0.000000,512.000000) scale(0.100000,-0.100000)"
fill="#5a8f5d" stroke="none">
<path d="M538 4118 l-108 -62 0 -856 0 -855 99 -58 c54 -31 104 -57 111 -57 7
0 57 26 112 57 l98 57 0 613 c0 337 4 613 8 613 5 0 246 -137 536 -305 l527
-304 526 304 c290 168 531 305 535 305 5 0 7 -223 6 -496 l-3 -496 -637 -366
-637 -367 -1 -135 0 -135 741 -429 c643 -371 744 -427 763 -418 11 6 347 199
746 430 l725 420 3 599 2 599 -98 57 c-54 31 -105 57 -112 57 -7 0 -57 -26
-111 -57 l-99 -57 -2 -475 -3 -474 -535 -308 -534 -308 -67 37 c-187 105 -796
457 -794 460 1 2 243 142 536 312 l534 308 3 864 2 865 -110 62 c-62 36 -116
61 -125 57 -8 -3 -291 -165 -629 -361 -338 -195 -620 -355 -625 -355 -6 0
-288 160 -626 356 -339 196 -623 358 -633 360 -9 2 -65 -24 -124 -58z"/>
<path d="M4375 3352 l-100 -58 -3 -127 -3 -126 38 -24 c21 -13 70 -41 108 -62
l70 -37 102 58 102 59 0 130 1 130 -98 55 c-53 30 -101 56 -107 58 -5 1 -55
-24 -110 -56z"/>
</g>
</svg>
