<svg version="1.0" xmlns="http://www.w3.org/2000/svg"
 width="100px" height="100px" viewBox="0 0 512.000000 512.000000"
 preserveAspectRatio="xMidYMid meet">

<g transform="translate(0.000000,512.000000) scale(0.100000,-0.100000)"
fill="#5a8f5d" stroke="none">
<path d="M1465 4299 c-46 -15 -174 -98 -555 -360 -272 -187 -516 -361 -542
-386 -141 -138 -166 -340 -65 -538 l33 -66 38 98 c116 297 320 538 592 699
120 71 208 106 395 160 9 2 70 73 134 157 65 84 136 171 158 194 l40 41 -39
11 c-57 16 -121 13 -189 -10z"/>
<path d="M2032 4300 c-92 -24 -161 -61 -230 -124 -47 -44 -697 -866 -781 -989
-43 -64 -86 -158 -113 -254 -22 -75 -23 -92 -23 -488 0 -387 2 -416 23 -512
57 -260 176 -496 346 -684 l48 -54 -6 35 c-27 162 -12 355 42 516 l27 82 -74
58 c-216 170 -347 461 -328 728 12 158 68 279 186 397 228 228 577 251 838 55
107 -81 183 -198 238 -366 15 -47 31 -89 35 -94 5 -4 32 0 62 10 78 28 398 28
476 0 30 -10 57 -14 62 -10 4 5 20 47 35 94 55 169 131 285 239 367 259 195
610 171 837 -56 118 -118 174 -239 186 -397 19 -266 -115 -564 -329 -729 l-74
-57 28 -83 c53 -157 71 -357 44 -482 -7 -35 -10 -63 -7 -63 3 0 27 24 53 54
168 191 284 424 340 679 21 96 23 125 23 512 0 396 -1 413 -23 488 -27 96 -70
190 -113 254 -84 123 -734 945 -781 989 -30 27 -77 61 -105 77 -66 35 -190 67
-262 67 -109 0 -235 -47 -313 -118 -56 -51 -100 -51 -156 0 -116 105 -284 141
-450 98z m271 -315 c75 -16 162 -52 219 -91 l36 -26 69 42 c95 57 177 81 306
87 l107 6 0 -82 0 -81 -73 0 c-127 0 -241 -41 -332 -120 -61 -53 -89 -53 -150
0 -93 81 -203 120 -335 120 l-70 0 0 80 0 80 78 0 c42 0 108 -7 145 -15z"/>
<path d="M3495 4315 c-5 -2 -23 -6 -39 -10 l-29 -6 40 -42 c22 -23 93 -111
158 -195 106 -137 122 -153 159 -163 459 -121 818 -447 977 -888 l23 -63 33
66 c101 200 76 400 -65 539 -26 25 -270 199 -542 386 -401 276 -507 345 -559
361 -56 18 -127 25 -156 15z"/>
<path d="M1105 3640 c-114 -60 -190 -115 -282 -203 -178 -171 -286 -357 -348
-602 l-23 -90 21 -12 c12 -7 36 -12 52 -13 57 0 88 31 168 170 42 72 77 135
77 140 0 21 70 171 105 225 21 33 101 140 177 238 77 99 137 181 135 183 -2 3
-39 -13 -82 -36z"/>
<path d="M3930 3675 c0 -3 62 -85 139 -182 76 -98 155 -205 176 -238 35 -54
105 -204 105 -225 0 -5 35 -68 77 -140 52 -90 86 -138 107 -151 55 -34 126
-19 126 25 0 39 -49 195 -90 288 -100 229 -301 448 -523 572 -65 36 -117 59
-117 51z"/>
<path d="M1483 3026 c-167 -41 -305 -176 -348 -341 -40 -157 8 -374 119 -529
46 -65 161 -176 180 -176 6 1 27 26 46 57 49 78 181 216 270 282 99 74 219
136 352 184 15 5 12 20 -27 138 -50 149 -85 209 -158 275 -118 106 -280 147
-434 110z m191 -158 c26 -8 60 -31 91 -63 78 -77 95 -166 51 -261 -53 -113
-170 -167 -290 -132 -55 16 -138 99 -154 154 -28 94 -8 169 63 239 70 71 145
90 239 63z"/>
<path d="M3420 3030 c-64 -14 -159 -63 -212 -110 -70 -61 -113 -135 -162 -279
-41 -119 -44 -132 -28 -138 133 -48 253 -110 352 -184 89 -66 221 -204 270
-282 19 -31 40 -56 46 -57 20 0 136 114 185 183 119 170 160 406 99 570 -46
122 -161 234 -287 279 -66 23 -195 32 -263 18z m174 -162 c55 -16 138 -99 154
-154 28 -94 8 -169 -63 -239 -101 -102 -229 -102 -330 0 -102 101 -102 229 0
330 70 71 145 90 239 63z"/>
<path d="M2387 2470 c-114 -29 -227 -132 -227 -208 0 -48 54 -102 102 -102 52
0 119 -39 151 -88 37 -55 72 -72 147 -72 75 0 110 17 147 72 32 49 99 88 151
88 48 0 102 54 102 102 0 64 -75 144 -176 190 -43 20 -68 23 -204 25 -85 1
-172 -2 -193 -7z"/>
<path d="M1930 2248 c-236 -144 -396 -360 -462 -625 -32 -127 -31 -321 1 -413
47 -135 152 -264 260 -324 l53 -28 160 158 c176 177 207 217 238 319 40 129
52 155 90 203 41 52 112 103 173 122 l38 12 -3 85 -3 85 -38 13 c-55 19 -111
61 -143 106 -17 25 -34 39 -49 39 -40 0 -112 31 -153 66 -47 40 -82 106 -91
173 l-6 48 -65 -39z m150 -408 l0 -80 -80 0 -80 0 0 80 0 80 80 0 80 0 0 -80z
m-320 -160 l0 -80 -80 0 -80 0 0 80 0 80 80 0 80 0 0 -80z m240 -240 l0 -80
-80 0 -80 0 0 80 0 80 80 0 80 0 0 -80z"/>
<path d="M3120 2258 c0 -99 -80 -209 -175 -241 -27 -9 -58 -17 -70 -17 -13 0
-34 -17 -57 -48 -32 -44 -99 -88 -160 -106 -15 -5 -18 -18 -18 -90 l0 -84 38
-12 c85 -27 174 -104 215 -185 8 -17 23 -60 32 -95 34 -130 56 -163 239 -347
93 -95 174 -173 178 -173 21 0 126 77 175 128 70 72 137 204 153 303 15 91 8
224 -19 334 -66 270 -233 488 -493 644 l-38 23 0 -34z m80 -418 l0 -80 -80 0
-80 0 0 80 0 80 80 0 80 0 0 -80z m320 -160 l0 -80 -80 0 -80 0 0 80 0 80 80
0 80 0 0 -80z m-240 -240 l0 -80 -80 0 -80 0 0 80 0 80 80 0 80 0 0 -80z"/>
<path d="M2475 1501 c-64 -28 -100 -78 -130 -178 -47 -153 -84 -212 -237 -369
-76 -78 -138 -145 -138 -149 0 -16 196 5 280 29 47 14 119 30 160 37 107 16
305 6 405 -21 44 -12 109 -28 145 -36 67 -14 190 -19 190 -8 0 4 -62 70 -137
148 -154 157 -191 216 -238 369 -40 134 -109 197 -215 197 -25 0 -63 -9 -85
-19z"/>
</g>
</svg>
