
<svg version="1.0" xmlns="http://www.w3.org/2000/svg"
 width="100px" height="100px" viewBox="0 0 512.000000 512.000000"
 preserveAspectRatio="xMidYMid meet">

<g transform="translate(0.000000,512.000000) scale(0.100000,-0.100000)"
fill="#5a8f5d" stroke="none">
<path d="M2411 5104 c-162 -43 -319 -170 -450 -363 -91 -134 -204 -380 -261
-568 -16 -53 -27 -73 -39 -73 -9 0 -57 9 -106 20 -226 49 -542 65 -707 35
-247 -44 -414 -150 -497 -317 -84 -167 -78 -361 19 -605 64 -160 208 -383 364
-562 l55 -64 -41 -46 c-153 -172 -199 -228 -264 -319 -87 -123 -172 -286 -209
-402 -33 -104 -44 -259 -25 -341 45 -195 196 -341 430 -418 230 -75 584 -79
909 -11 52 11 96 19 97 17 2 -2 26 -68 53 -148 151 -444 359 -746 600 -873
417 -219 843 128 1082 881 26 83 23 81 126 57 226 -52 534 -69 720 -39 273 44
460 178 535 381 31 87 32 276 0 391 -61 227 -182 431 -439 740 l-31 38 95 105
c219 241 355 458 423 675 31 100 38 252 15 343 -92 379 -586 542 -1275 421
-63 -11 -125 -22 -137 -25 -19 -5 -24 1 -43 68 -32 107 -125 340 -177 440
-219 426 -532 640 -822 562z m237 -321 c131 -62 282 -274 393 -550 35 -86 100
-275 96 -278 -1 -1 -65 -22 -142 -47 -77 -25 -199 -68 -272 -97 l-131 -52
-104 47 c-130 58 -374 156 -452 180 -32 10 -60 24 -63 30 -6 17 45 167 105
306 146 340 316 513 482 491 19 -3 59 -16 88 -30z m-1368 -923 c103 -13 293
-50 308 -59 10 -6 7 -38 -12 -142 -13 -74 -32 -197 -41 -274 -9 -77 -18 -154
-21 -172 -4 -27 -21 -43 -127 -117 -101 -70 -180 -130 -364 -278 -25 -20 -234
254 -324 426 -91 172 -126 318 -100 414 25 92 126 165 266 195 81 18 303 21
415 7z m3005 -85 c238 -50 333 -182 279 -388 -41 -159 -174 -364 -379 -585
l-67 -72 -87 78 c-106 97 -230 199 -339 281 -46 35 -87 73 -92 84 -4 12 -15
81 -24 152 -9 72 -28 192 -43 268 -14 76 -24 140 -21 142 8 8 235 45 333 54
135 13 343 6 440 -14z m-2141 -149 c39 -15 72 -28 73 -30 2 -2 -56 -35 -129
-73 -73 -39 -159 -85 -190 -102 -44 -25 -58 -29 -58 -18 0 9 11 82 25 163 14
81 25 149 25 151 0 3 123 -41 254 -91z m1095 -91 c13 -68 21 -129 19 -133 -1
-5 -66 28 -143 74 -77 46 -146 87 -154 91 -8 6 30 23 110 50 68 23 129 42 135
42 6 1 20 -54 33 -124z m-464 -210 c153 -85 280 -161 426 -257 99 -63 107 -72
113 -106 10 -66 19 -654 11 -755 l-7 -99 -53 -33 c-114 -74 -310 -181 -512
-281 l-212 -105 -78 42 c-159 86 -312 174 -440 255 -211 134 -210 132 -217
184 -10 76 -18 680 -9 765 l8 80 113 68 c174 103 342 193 511 273 153 73 154
73 185 57 17 -9 90 -48 161 -88z m-1287 -846 l-3 -112 -105 90 c-58 50 -115
102 -128 115 l-23 25 93 74 c51 40 109 85 128 100 l35 27 3 -103 c1 -57 1
-154 0 -216z m2287 155 c61 -53 111 -100 113 -105 3 -7 -144 -129 -225 -187
l-33 -23 0 216 c0 203 1 215 18 206 9 -6 67 -54 127 -107z m-2406 -557 c62
-48 122 -94 133 -101 17 -12 24 -37 38 -154 10 -76 30 -205 45 -286 15 -81 25
-149 23 -151 -2 -2 -53 -13 -114 -24 -411 -74 -751 -39 -882 90 -46 45 -63 83
-69 148 -15 167 142 456 390 718 l69 72 127 -112 c70 -62 178 -151 240 -200z
m2828 130 c93 -111 201 -274 248 -371 61 -128 78 -192 79 -292 1 -84 -1 -94
-29 -140 -39 -62 -112 -107 -214 -131 -104 -25 -393 -24 -541 0 -100 17 -208
41 -216 50 -2 2 8 66 21 142 14 76 32 195 40 264 9 69 18 145 21 168 5 38 10
45 82 94 105 72 262 191 346 261 38 31 73 55 78 52 5 -3 43 -47 85 -97z
m-2182 -569 c72 -43 136 -81 144 -86 9 -5 -29 -22 -114 -50 -71 -23 -132 -39
-136 -35 -6 8 -49 225 -49 251 0 8 5 10 13 5 6 -4 71 -42 142 -85z m1256 5
c-7 -43 -19 -115 -28 -160 l-15 -82 -92 34 c-50 18 -125 46 -166 63 l-74 30
99 50 c55 28 140 73 190 100 49 28 91 49 94 47 2 -3 -2 -39 -8 -82z m-651
-323 c65 -33 415 -172 479 -191 23 -7 45 -19 48 -26 6 -16 -38 -151 -94 -283
-210 -496 -452 -637 -691 -401 -115 113 -232 323 -325 581 -24 69 -47 134 -51
146 -6 18 4 23 101 53 60 18 182 61 273 96 96 37 173 61 185 58 11 -3 45 -18
75 -33z"/>
<path d="M2459 2936 c-229 -61 -350 -336 -244 -553 62 -125 205 -208 360 -208
71 0 89 4 147 33 115 56 194 164 219 297 48 263 -219 502 -482 431z"/>
</g>
</svg>
