<?xml version="1.0" standalone="no"?>
<!DOCTYPE svg PUBLIC "-//W3C//DTD SVG 20010904//EN"
 "http://www.w3.org/TR/2001/REC-SVG-20010904/DTD/svg10.dtd">
<svg version="1.0" xmlns="http://www.w3.org/2000/svg"
 width="100px" height="100px" viewBox="0 0 512.000000 512.000000"
 preserveAspectRatio="xMidYMid meet">

<g transform="translate(0.000000,512.000000) scale(0.100000,-0.100000)"
fill="#5a8f5d" stroke="none">
<path d="M2348 4089 c-340 -39 -631 -201 -818 -454 -91 -124 -181 -313 -229
-485 l-21 -74 32 39 c54 69 183 191 248 235 132 90 260 130 412 130 172 0 314
-45 445 -141 32 -24 148 -131 258 -239 264 -259 400 -359 592 -437 310 -125
751 -136 1073 -26 164 56 336 166 446 286 136 148 250 363 313 588 l20 74 -31
-40 c-63 -80 -196 -202 -272 -250 -124 -77 -218 -107 -356 -113 -187 -7 -312
28 -462 129 -34 24 -157 135 -273 248 -218 214 -293 276 -427 356 -250 149
-603 213 -950 174z"/>
<path d="M1068 2549 c-340 -39 -631 -201 -818 -454 -91 -124 -181 -313 -229
-485 l-21 -74 32 39 c54 69 183 191 248 235 132 90 260 130 412 130 172 0 314
-45 445 -141 32 -24 148 -131 258 -239 264 -259 400 -359 592 -437 310 -125
751 -136 1073 -26 164 56 336 166 446 286 136 148 250 363 313 588 l20 74 -31
-40 c-63 -80 -196 -202 -272 -250 -124 -77 -218 -107 -356 -113 -187 -7 -312
28 -462 129 -34 24 -157 135 -273 248 -218 214 -293 276 -427 356 -250 149
-603 213 -950 174z"/>
</g>
</svg>
